<svg xmlns="http://www.w3.org/2000/svg" viewBox="0 0 512 512" xml:space="preserve">
  <path style="fill:#eff2fa" d="M8.828 105.931h141.241v344.276H8.828z"/>
  <path style="fill:#d7deed" d="M485.517 52.966H26.483C11.857 52.966 0 64.822 0 79.448v353.103c0 14.626 11.857 26.483 26.483 26.483h459.034c14.626 0 26.483-11.857 26.483-26.483V79.448c0-14.626-11.857-26.482-26.483-26.482m8.828 379.586a8.83 8.83 0 0 1-8.828 8.828H26.483a8.83 8.83 0 0 1-8.828-8.828V114.759a8.83 8.83 0 0 1 8.828-8.828h459.034a8.83 8.83 0 0 1 8.828 8.828z"/>
  <circle style="fill:#ff6464" cx="26.483" cy="79.448" r="8.828"/>
  <circle style="fill:#ffe182" cx="52.966" cy="79.448" r="8.828"/>
  <circle style="fill:#a5d76e" cx="79.448" cy="79.448" r="8.828"/>
  <path style="fill:#eff2fa" d="M123.586 88.276h-8.828a8.829 8.829 0 0 1 0-17.656h8.828a8.829 8.829 0 0 1 0 17.656m35.311 0h-8.828a8.829 8.829 0 0 1 0-17.656h8.828a8.83 8.83 0 0 1 8.828 8.828 8.83 8.83 0 0 1-8.828 8.828m291.31 0h-8.828a8.829 8.829 0 0 1 0-17.656h8.828a8.83 8.83 0 0 1 8.828 8.828 8.83 8.83 0 0 1-8.828 8.828m35.31 0h-8.828a8.829 8.829 0 0 1 0-17.656h8.828a8.829 8.829 0 0 1 0 17.656m-79.448 0H194.207a8.829 8.829 0 0 1 0-17.656h211.862a8.829 8.829 0 0 1 0 17.656"/>
  <path style="fill:#00d2ff" d="M123.586 150.069H44.138a8.829 8.829 0 0 1 0-17.656h79.448a8.829 8.829 0 0 1 0 17.656"/>
  <path style="fill:#c7cfe2" d="M52.966 220.69h-8.828a8.829 8.829 0 0 1 0-17.656h8.828a8.83 8.83 0 0 1 8.828 8.828 8.83 8.83 0 0 1-8.828 8.828"/>
  <path style="fill:#d7deed" d="M123.586 220.69h-35.31a8.829 8.829 0 0 1 0-17.656h35.31a8.828 8.828 0 0 1 0 17.656"/>
  <path style="fill:#c7cfe2" d="M52.966 256h-8.828a8.829 8.829 0 0 1 0-17.656h8.828a8.83 8.83 0 0 1 8.828 8.828A8.83 8.83 0 0 1 52.966 256"/>
  <path style="fill:#d7deed" d="M123.586 256h-35.31a8.829 8.829 0 0 1 0-17.656h35.31a8.828 8.828 0 0 1 0 17.656"/>
  <path style="fill:#c7cfe2" d="M52.966 291.31h-8.828a8.829 8.829 0 0 1 0-17.656h8.828a8.829 8.829 0 0 1 0 17.656"/>
  <path style="fill:#d7deed" d="M123.586 291.31h-35.31a8.829 8.829 0 0 1 0-17.656h35.31a8.83 8.83 0 0 1 8.828 8.828 8.827 8.827 0 0 1-8.828 8.828m-26.483 35.311H44.138a8.829 8.829 0 0 1 0-17.656h52.966a8.83 8.83 0 0 1 8.828 8.828 8.83 8.83 0 0 1-8.829 8.828m0 35.31H44.138a8.829 8.829 0 0 1 0-17.656h52.966a8.83 8.83 0 0 1 8.828 8.828 8.83 8.83 0 0 1-8.829 8.828"/>
  <path style="fill:#00d2ff" d="M97.103 185.379H44.138a8.829 8.829 0 0 1 0-17.656h52.966a8.83 8.83 0 0 1 8.828 8.828 8.83 8.83 0 0 1-8.829 8.828m87.748 90.057c0-29.245 16.594-47.362 42.666-47.362 16.98 0 30.724 8.444 36.631 21.854 2.303 5.227-1.525 11.14-7.236 11.14h-.227c-3.124 0-5.987-1.847-7.156-4.745-3.544-8.794-11.849-14.327-22.013-14.327-15.775 0-25.879 12.969-25.879 33.439 0 20.605 10.047 33.506 25.938 33.506 10.386 0 18.255-4.785 21.912-13.082 1.224-2.777 4.024-4.524 7.059-4.524 5.774 0 9.647 6.063 7.169 11.278-6.093 12.819-19.06 20.25-36.198 20.25-26.198.003-42.666-17.99-42.666-47.427m145.497 8.899c10.934-3.934 17.288-14.048 17.288-26.188 0-17.548-11.889-28.551-31.722-28.551h-27.666a9.215 9.215 0 0 0-9.215 9.215v73.859c0 4.444 3.327 8.426 7.764 8.658a8.206 8.206 0 0 0 8.647-8.194v-26.313h18.175l15.692 30.105a8.21 8.21 0 0 0 7.278 4.414c6.223 0 10.187-6.65 7.224-12.125zm-15.958-10.104h-18.946v-31.347h18.561c10.423 0 16.787 5.978 16.787 15.639 0 9.923-5.979 15.708-16.402 15.708m137.268 47.111a7.377 7.377 0 0 1-7.377-7.377v-57.727h-.444l-24.384 59.171a8.351 8.351 0 0 1-15.446 0l-24.385-59.171h-.444v57.693a7.41 7.41 0 1 1-14.82 0V240.96c0-6.275 5.087-11.362 11.362-11.362 4.626 0 8.789 2.804 10.529 7.09l25.219 62.15h.511l25.239-62.176a11.32 11.32 0 0 1 10.492-7.064c6.253 0 11.322 5.069 11.322 11.322v73.045a7.373 7.373 0 0 1-7.374 7.377"/>
</svg>
